<mxfile host="app.diagrams.net" agent="Mozilla/5.0 (Windows NT 10.0; Win64; x64) AppleWebKit/537.36 (KHTML, like Gecko) Chrome/127.0.0.0 Safari/537.36 OPR/113.0.0.0" version="24.8.3">
  <diagram id="JL1NMvvyFST9tn4MH-Dm" name="Page-1">
    <mxGraphModel grid="1" page="1" gridSize="10" guides="1" tooltips="1" connect="1" arrows="1" fold="1" pageScale="1" pageWidth="850" pageHeight="1100" background="none" math="0" shadow="0">
      <root>
        <mxCell id="0" />
        <mxCell id="1" parent="0" />
        <mxCell id="xCOBlcEBNlZvq0qhSWPW-67" value="" style="rounded=0;whiteSpace=wrap;html=1;" vertex="1" parent="1">
          <mxGeometry x="175" y="57" width="1485" height="1123" as="geometry" />
        </mxCell>
        <mxCell id="xCOBlcEBNlZvq0qhSWPW-52" value="" style="shape=cylinder3;whiteSpace=wrap;html=1;boundedLbl=1;backgroundOutline=1;size=15;" vertex="1" parent="1">
          <mxGeometry x="1500" y="525.9200000000001" width="121" height="119" as="geometry" />
        </mxCell>
        <mxCell id="O6HLDK9tNG4gK17g9pfa-21" value="" style="rounded=0;whiteSpace=wrap;html=1;sketch=0;fillColor=none;strokeWidth=2;" vertex="1" parent="1">
          <mxGeometry x="284.06" y="120" width="1133" height="930.85" as="geometry" />
        </mxCell>
        <mxCell id="O6HLDK9tNG4gK17g9pfa-33" value="" style="image;html=1;image=img/lib/clip_art/networking/Email_128x128.png;sketch=0;fontSize=15;fillColor=none;" vertex="1" parent="1">
          <mxGeometry x="1288" y="176" width="52" height="43" as="geometry" />
        </mxCell>
        <mxCell id="O6HLDK9tNG4gK17g9pfa-50" value="" style="endArrow=classic;html=1;rounded=0;fontSize=15;endSize=6;strokeWidth=3;strokeColor=#C73500;fillColor=#fa6800;flowAnimation=1;entryX=0;entryY=0.5;entryDx=0;entryDy=0;" edge="1" parent="1" source="O6HLDK9tNG4gK17g9pfa-103" target="xCOBlcEBNlZvq0qhSWPW-1">
          <mxGeometry width="50" height="50" relative="1" as="geometry">
            <mxPoint x="267" y="350" as="sourcePoint" />
            <mxPoint x="465.0000000000002" y="161.5" as="targetPoint" />
          </mxGeometry>
        </mxCell>
        <mxCell id="O6HLDK9tNG4gK17g9pfa-59" value="/customers" style="edgeLabel;html=1;align=center;verticalAlign=middle;resizable=0;points=[];fontSize=15;" connectable="0" vertex="1" parent="O6HLDK9tNG4gK17g9pfa-50">
          <mxGeometry x="-0.5046" y="1" relative="1" as="geometry">
            <mxPoint x="159" y="-65" as="offset" />
          </mxGeometry>
        </mxCell>
        <mxCell id="O6HLDK9tNG4gK17g9pfa-51" value="" style="endArrow=classic;html=1;rounded=0;fontSize=15;endSize=6;strokeWidth=3;strokeColor=#C73500;fillColor=#fa6800;entryX=0;entryY=0.5;entryDx=0;entryDy=0;flowAnimation=1;" edge="1" parent="1" source="O6HLDK9tNG4gK17g9pfa-103">
          <mxGeometry width="50" height="50" relative="1" as="geometry">
            <mxPoint x="93" y="348.92416472416454" as="sourcePoint" />
            <mxPoint x="700" y="613.0799999999999" as="targetPoint" />
          </mxGeometry>
        </mxCell>
        <mxCell id="O6HLDK9tNG4gK17g9pfa-60" value="/orders" style="edgeLabel;html=1;align=center;verticalAlign=middle;resizable=0;points=[];fontSize=15;" connectable="0" vertex="1" parent="O6HLDK9tNG4gK17g9pfa-51">
          <mxGeometry x="0.2804" y="-3" relative="1" as="geometry">
            <mxPoint x="-88" y="-40" as="offset" />
          </mxGeometry>
        </mxCell>
        <mxCell id="8Op4M2FmP5w4KHeaY0xA-4" style="rounded=0;orthogonalLoop=1;jettySize=auto;html=1;strokeWidth=3;fillColor=#fa6800;strokeColor=#C73500;flowAnimation=1;entryX=1;entryY=0;entryDx=0;entryDy=0;" edge="1" parent="1" source="O6HLDK9tNG4gK17g9pfa-103" target="xCOBlcEBNlZvq0qhSWPW-2">
          <mxGeometry relative="1" as="geometry">
            <mxPoint x="1000" y="920" as="targetPoint" />
          </mxGeometry>
        </mxCell>
        <mxCell id="8Op4M2FmP5w4KHeaY0xA-5" value="/products" style="edgeLabel;html=1;align=center;verticalAlign=middle;resizable=0;points=[];fontSize=15;" connectable="0" vertex="1" parent="8Op4M2FmP5w4KHeaY0xA-4">
          <mxGeometry x="0.2865" y="1" relative="1" as="geometry">
            <mxPoint x="-160" y="-95" as="offset" />
          </mxGeometry>
        </mxCell>
        <mxCell id="Sr1AToIsDmf1QCaqVxD8-1" value="" style="shape=image;verticalLabelPosition=bottom;labelBackgroundColor=default;verticalAlign=top;aspect=fixed;imageAspect=0;image=https://www.opc-router.de/wp-content/uploads/2021/03/mongodb_thumbnail.png;" vertex="1" parent="1">
          <mxGeometry x="1286.12" y="443.5" width="55.76" height="75" as="geometry" />
        </mxCell>
        <mxCell id="8Op4M2FmP5w4KHeaY0xA-1" value="" style="shape=image;verticalLabelPosition=bottom;labelBackgroundColor=default;verticalAlign=top;aspect=fixed;imageAspect=0;image=https://avatars.githubusercontent.com/u/11860887?s=280&amp;v=4;" vertex="1" parent="1">
          <mxGeometry x="1529" y="570" width="63" height="63" as="geometry" />
        </mxCell>
        <mxCell id="xCOBlcEBNlZvq0qhSWPW-14" value="" style="shape=image;verticalLabelPosition=bottom;labelBackgroundColor=default;verticalAlign=top;aspect=fixed;imageAspect=0;image=https://static-00.iconduck.com/assets.00/kafka-icon-2048x935-cvu4503l.png;imageBorder=none;perimeterSpacing=0;" vertex="1" parent="1">
          <mxGeometry x="1054" y="274" width="77.75" height="35.5" as="geometry" />
        </mxCell>
        <mxCell id="xCOBlcEBNlZvq0qhSWPW-15" value="Message Broker" style="shape=cylinder3;whiteSpace=wrap;html=1;boundedLbl=1;backgroundOutline=1;size=15;rotation=90;horizontal=0;verticalAlign=top;" vertex="1" parent="1">
          <mxGeometry x="1081" y="274.5" width="59" height="139" as="geometry" />
        </mxCell>
        <mxCell id="xCOBlcEBNlZvq0qhSWPW-25" style="rounded=0;orthogonalLoop=1;jettySize=auto;html=1;entryX=0.686;entryY=0.998;entryDx=0;entryDy=0;entryPerimeter=0;fillColor=#60a917;strokeColor=#2D7600;strokeWidth=3;flowAnimation=1;exitX=1;exitY=0;exitDx=0;exitDy=0;" edge="1" parent="1" source="xCOBlcEBNlZvq0qhSWPW-19" target="xCOBlcEBNlZvq0qhSWPW-15">
          <mxGeometry relative="1" as="geometry" />
        </mxCell>
        <mxCell id="xCOBlcEBNlZvq0qhSWPW-27" style="rounded=0;orthogonalLoop=1;jettySize=auto;html=1;exitX=0.5;exitY=0;exitDx=0;exitDy=0;strokeWidth=3;fillColor=#1ba1e2;strokeColor=#006EAF;flowAnimation=1;entryX=0.5;entryY=1;entryDx=0;entryDy=0;startArrow=classic;startFill=1;" edge="1" parent="1" source="xCOBlcEBNlZvq0qhSWPW-19" target="xCOBlcEBNlZvq0qhSWPW-1">
          <mxGeometry relative="1" as="geometry">
            <mxPoint x="410" y="812.08" as="targetPoint" />
            <mxPoint x="786.7200000000003" y="472.9955000000001" as="sourcePoint" />
          </mxGeometry>
        </mxCell>
        <mxCell id="xCOBlcEBNlZvq0qhSWPW-28" style="rounded=0;orthogonalLoop=1;jettySize=auto;html=1;entryDx=0;entryDy=0;fillColor=#1ba1e2;strokeColor=#006EAF;strokeWidth=3;flowAnimation=1;movable=1;resizable=1;rotatable=1;deletable=1;editable=1;locked=0;connectable=1;shadow=0;startArrow=classic;startFill=1;" edge="1" parent="1">
          <mxGeometry relative="1" as="geometry">
            <mxPoint x="790" y="610" as="sourcePoint" />
            <mxPoint x="815.94" y="364" as="targetPoint" />
          </mxGeometry>
        </mxCell>
        <mxCell id="xCOBlcEBNlZvq0qhSWPW-30" style="rounded=0;orthogonalLoop=1;jettySize=auto;html=1;entryX=0.5;entryY=1;entryDx=0;entryDy=0;entryPerimeter=0;fillColor=#60a917;strokeColor=#2D7600;strokeWidth=3;flowAnimation=1;" edge="1" parent="1" source="xCOBlcEBNlZvq0qhSWPW-9" target="xCOBlcEBNlZvq0qhSWPW-15">
          <mxGeometry relative="1" as="geometry" />
        </mxCell>
        <mxCell id="xCOBlcEBNlZvq0qhSWPW-35" style="edgeStyle=orthogonalEdgeStyle;rounded=0;orthogonalLoop=1;jettySize=auto;html=1;entryX=0.5;entryY=0;entryDx=0;entryDy=0;entryPerimeter=0;fillColor=#60a917;strokeColor=#2D7600;strokeWidth=3;flowAnimation=1;" edge="1" parent="1" source="xCOBlcEBNlZvq0qhSWPW-33" target="xCOBlcEBNlZvq0qhSWPW-15">
          <mxGeometry relative="1" as="geometry" />
        </mxCell>
        <mxCell id="O6HLDK9tNG4gK17g9pfa-22" value="" style="shape=image;verticalLabelPosition=bottom;labelBackgroundColor=default;verticalAlign=top;aspect=fixed;imageAspect=0;image=https://cdn-icons-png.flaticon.com/512/25/25231.png;" vertex="1" parent="1">
          <mxGeometry x="1086.76" y="942.25" width="29" height="29" as="geometry" />
        </mxCell>
        <mxCell id="O6HLDK9tNG4gK17g9pfa-23" value="" style="sketch=0;aspect=fixed;pointerEvents=1;shadow=0;dashed=0;html=1;strokeColor=none;labelPosition=center;verticalLabelPosition=bottom;verticalAlign=top;align=center;fillColor=#00188D;shape=mxgraph.azure.code_file" vertex="1" parent="1">
          <mxGeometry x="1162.74" y="1076.75" width="31.26" height="33.25" as="geometry" />
        </mxCell>
        <mxCell id="xCOBlcEBNlZvq0qhSWPW-46" value="" style="group" connectable="0" vertex="1" parent="1">
          <mxGeometry x="785" y="213" width="50.120000000000005" height="57.64852490606316" as="geometry" />
        </mxCell>
        <mxCell id="xCOBlcEBNlZvq0qhSWPW-47" value="" style="shape=image;verticalLabelPosition=bottom;labelBackgroundColor=default;verticalAlign=top;aspect=fixed;imageAspect=0;image=https://upload.wikimedia.org/wikipedia/commons/thumb/b/ba/Database-postgres.svg/1448px-Database-postgres.svg.png;container=0;" vertex="1" parent="xCOBlcEBNlZvq0qhSWPW-46">
          <mxGeometry x="13.99735211811253" width="36.12264788188748" height="51.04120428447361" as="geometry" />
        </mxCell>
        <mxCell id="xCOBlcEBNlZvq0qhSWPW-48" value="" style="sketch=0;aspect=fixed;html=1;points=[];align=center;image;fontSize=12;image=img/lib/mscae/Docker.svg;fillColor=none;container=0;" vertex="1" parent="xCOBlcEBNlZvq0qhSWPW-46">
          <mxGeometry y="36.67969348659003" width="25.571745633503813" height="20.968831419473126" as="geometry" />
        </mxCell>
        <mxCell id="xCOBlcEBNlZvq0qhSWPW-49" value="" style="group" connectable="0" vertex="1" parent="1">
          <mxGeometry x="1203.88" y="840" width="50.120000000000005" height="57.64852490606316" as="geometry" />
        </mxCell>
        <mxCell id="xCOBlcEBNlZvq0qhSWPW-50" value="" style="shape=image;verticalLabelPosition=bottom;labelBackgroundColor=default;verticalAlign=top;aspect=fixed;imageAspect=0;image=https://upload.wikimedia.org/wikipedia/commons/thumb/b/ba/Database-postgres.svg/1448px-Database-postgres.svg.png;container=0;" vertex="1" parent="xCOBlcEBNlZvq0qhSWPW-49">
          <mxGeometry x="15.99735211811253" width="36.12264788188748" height="51.04120428447361" as="geometry" />
        </mxCell>
        <mxCell id="xCOBlcEBNlZvq0qhSWPW-51" value="" style="sketch=0;aspect=fixed;html=1;points=[];align=center;image;fontSize=12;image=img/lib/mscae/Docker.svg;fillColor=none;container=0;" vertex="1" parent="xCOBlcEBNlZvq0qhSWPW-49">
          <mxGeometry y="36.67969348659003" width="25.571745633503813" height="20.968831419473126" as="geometry" />
        </mxCell>
        <mxCell id="xCOBlcEBNlZvq0qhSWPW-54" style="edgeStyle=orthogonalEdgeStyle;rounded=0;orthogonalLoop=1;jettySize=auto;html=1;shape=link;flowAnimation=1;" edge="1" parent="1" source="xCOBlcEBNlZvq0qhSWPW-9" target="xCOBlcEBNlZvq0qhSWPW-47">
          <mxGeometry relative="1" as="geometry" />
        </mxCell>
        <mxCell id="xCOBlcEBNlZvq0qhSWPW-55" value="" style="group" connectable="0" vertex="1" parent="1">
          <mxGeometry x="620" y="610.04" width="50.120000000000005" height="57.64852490606316" as="geometry" />
        </mxCell>
        <mxCell id="xCOBlcEBNlZvq0qhSWPW-56" value="" style="shape=image;verticalLabelPosition=bottom;labelBackgroundColor=default;verticalAlign=top;aspect=fixed;imageAspect=0;image=https://upload.wikimedia.org/wikipedia/commons/thumb/b/ba/Database-postgres.svg/1448px-Database-postgres.svg.png;container=0;" vertex="1" parent="xCOBlcEBNlZvq0qhSWPW-55">
          <mxGeometry x="13.99735211811253" width="36.12264788188748" height="51.04120428447361" as="geometry" />
        </mxCell>
        <mxCell id="xCOBlcEBNlZvq0qhSWPW-57" value="" style="sketch=0;aspect=fixed;html=1;points=[];align=center;image;fontSize=12;image=img/lib/mscae/Docker.svg;fillColor=none;container=0;" vertex="1" parent="xCOBlcEBNlZvq0qhSWPW-55">
          <mxGeometry y="36.67969348659003" width="25.571745633503813" height="20.968831419473126" as="geometry" />
        </mxCell>
        <mxCell id="xCOBlcEBNlZvq0qhSWPW-58" style="rounded=0;orthogonalLoop=1;jettySize=auto;html=1;entryX=1;entryY=0.5;entryDx=0;entryDy=0;exitX=0;exitY=0.5;exitDx=0;exitDy=0;shape=link;flowAnimation=1;" edge="1" parent="1" source="xCOBlcEBNlZvq0qhSWPW-19" target="xCOBlcEBNlZvq0qhSWPW-56">
          <mxGeometry relative="1" as="geometry" />
        </mxCell>
        <mxCell id="xCOBlcEBNlZvq0qhSWPW-59" style="rounded=0;orthogonalLoop=1;jettySize=auto;html=1;entryX=0;entryY=0.5;entryDx=0;entryDy=0;shape=link;flowAnimation=1;exitX=1;exitY=0.25;exitDx=0;exitDy=0;" edge="1" parent="1" source="xCOBlcEBNlZvq0qhSWPW-12" target="xCOBlcEBNlZvq0qhSWPW-50">
          <mxGeometry relative="1" as="geometry" />
        </mxCell>
        <mxCell id="xCOBlcEBNlZvq0qhSWPW-60" style="edgeStyle=orthogonalEdgeStyle;rounded=0;orthogonalLoop=1;jettySize=auto;html=1;entryX=0.5;entryY=1;entryDx=0;entryDy=0;shape=link;flowAnimation=1;" edge="1" parent="1" source="xCOBlcEBNlZvq0qhSWPW-33" target="O6HLDK9tNG4gK17g9pfa-33">
          <mxGeometry relative="1" as="geometry" />
        </mxCell>
        <mxCell id="xCOBlcEBNlZvq0qhSWPW-61" style="edgeStyle=orthogonalEdgeStyle;rounded=0;orthogonalLoop=1;jettySize=auto;html=1;entryX=0;entryY=0.5;entryDx=0;entryDy=0;entryPerimeter=0;strokeWidth=3;fillColor=#a20025;strokeColor=#6F0000;flowAnimation=1;" edge="1" parent="1" source="O6HLDK9tNG4gK17g9pfa-21" target="xCOBlcEBNlZvq0qhSWPW-52">
          <mxGeometry relative="1" as="geometry" />
        </mxCell>
        <mxCell id="xCOBlcEBNlZvq0qhSWPW-62" value="Distributed Tracing" style="text;html=1;align=center;verticalAlign=middle;resizable=0;points=[];autosize=1;strokeColor=none;fillColor=none;fontStyle=1;fontSize=15;" vertex="1" parent="1">
          <mxGeometry x="1483" y="655.24" width="155" height="30" as="geometry" />
        </mxCell>
        <mxCell id="O6HLDK9tNG4gK17g9pfa-103" value="&lt;b&gt;API GW&lt;/b&gt;" style="sketch=0;outlineConnect=0;dashed=0;verticalLabelPosition=bottom;verticalAlign=top;align=center;html=1;fontSize=12;fontStyle=0;aspect=fixed;pointerEvents=1;shape=mxgraph.aws4.gateway_load_balancer;labelBackgroundColor=none;labelBorderColor=none;fillColor=#1ba1e2;strokeColor=default;" vertex="1" parent="1">
          <mxGeometry x="20" y="314.25" width="73" height="73" as="geometry" />
        </mxCell>
        <mxCell id="xCOBlcEBNlZvq0qhSWPW-64" style="edgeStyle=orthogonalEdgeStyle;rounded=0;orthogonalLoop=1;jettySize=auto;html=1;entryX=0.5;entryY=0;entryDx=0;entryDy=0;shape=link;flowAnimation=1;" edge="1" parent="1" source="xCOBlcEBNlZvq0qhSWPW-33" target="Sr1AToIsDmf1QCaqVxD8-1">
          <mxGeometry relative="1" as="geometry" />
        </mxCell>
        <mxCell id="xCOBlcEBNlZvq0qhSWPW-66" value="Async&lt;br&gt;Send Payment confirmation" style="text;html=1;align=center;verticalAlign=middle;resizable=0;points=[];autosize=1;strokeColor=none;fillColor=none;" vertex="1" parent="1">
          <mxGeometry x="876" y="300" width="165" height="41" as="geometry" />
        </mxCell>
        <mxCell id="xCOBlcEBNlZvq0qhSWPW-68" value="Public network" style="text;html=1;align=center;verticalAlign=middle;resizable=0;points=[];autosize=1;strokeColor=none;fillColor=none;fontStyle=1" vertex="1" parent="1">
          <mxGeometry x="60" y="120" width="103" height="26" as="geometry" />
        </mxCell>
        <mxCell id="xCOBlcEBNlZvq0qhSWPW-69" value="Private network" style="text;html=1;align=center;verticalAlign=middle;resizable=0;points=[];autosize=1;strokeColor=none;fillColor=none;fontStyle=1" vertex="1" parent="1">
          <mxGeometry x="175" y="57" width="107" height="26" as="geometry" />
        </mxCell>
        <mxCell id="xCOBlcEBNlZvq0qhSWPW-70" style="edgeStyle=orthogonalEdgeStyle;rounded=0;orthogonalLoop=1;jettySize=auto;html=1;entryX=0.75;entryY=1;entryDx=0;entryDy=0;flowAnimation=1;startArrow=none;startFill=0;endArrow=block;endFill=1;" edge="1" parent="1" source="xCOBlcEBNlZvq0qhSWPW-37" target="O6HLDK9tNG4gK17g9pfa-21">
          <mxGeometry relative="1" as="geometry" />
        </mxCell>
        <mxCell id="xCOBlcEBNlZvq0qhSWPW-71" style="edgeStyle=orthogonalEdgeStyle;rounded=0;orthogonalLoop=1;jettySize=auto;html=1;entryX=0.25;entryY=1;entryDx=0;entryDy=0;flowAnimation=1;startArrow=block;startFill=1;endArrow=none;endFill=0;" edge="1" parent="1" source="xCOBlcEBNlZvq0qhSWPW-40" target="O6HLDK9tNG4gK17g9pfa-21">
          <mxGeometry relative="1" as="geometry" />
        </mxCell>
        <mxCell id="rKu08YaNow4kpiejSnou-1" value="" style="shape=message;html=1;html=1;outlineConnect=0;labelPosition=center;verticalLabelPosition=bottom;align=center;verticalAlign=top;container=0;" vertex="1" parent="1">
          <mxGeometry x="1067" y="344" width="23" height="13.5" as="geometry" />
        </mxCell>
        <mxCell id="rKu08YaNow4kpiejSnou-2" value="" style="shape=message;html=1;html=1;outlineConnect=0;labelPosition=center;verticalLabelPosition=bottom;align=center;verticalAlign=top;container=0;" vertex="1" parent="1">
          <mxGeometry x="1090" y="344" width="23" height="13.5" as="geometry" />
        </mxCell>
        <mxCell id="rKu08YaNow4kpiejSnou-3" value="" style="shape=message;html=1;html=1;outlineConnect=0;labelPosition=center;verticalLabelPosition=bottom;align=center;verticalAlign=top;container=0;" vertex="1" parent="1">
          <mxGeometry x="1113" y="344" width="23" height="13.5" as="geometry" />
        </mxCell>
        <mxCell id="rKu08YaNow4kpiejSnou-4" style="edgeStyle=orthogonalEdgeStyle;rounded=0;orthogonalLoop=1;jettySize=auto;html=1;flowAnimation=1;" edge="1" parent="1" source="xCOBlcEBNlZvq0qhSWPW-37" target="xCOBlcEBNlZvq0qhSWPW-40">
          <mxGeometry relative="1" as="geometry" />
        </mxCell>
        <mxCell id="rKu08YaNow4kpiejSnou-6" style="rounded=0;orthogonalLoop=1;jettySize=auto;html=1;flowAnimation=1;" edge="1" parent="1" source="rKu08YaNow4kpiejSnou-5" target="O6HLDK9tNG4gK17g9pfa-103">
          <mxGeometry relative="1" as="geometry" />
        </mxCell>
        <mxCell id="rKu08YaNow4kpiejSnou-5" value="" style="shape=image;verticalLabelPosition=bottom;labelBackgroundColor=default;verticalAlign=top;aspect=fixed;imageAspect=0;image=https://upload.wikimedia.org/wikipedia/commons/thumb/c/cf/Angular_full_color_logo.svg/800px-Angular_full_color_logo.svg.png;clipPath=inset(11.67% 12.33% 7.67% 12%);" vertex="1" parent="1">
          <mxGeometry x="-100" y="273.17" width="50.18" height="53.5" as="geometry" />
        </mxCell>
        <mxCell id="vbnjpDnbafTEZDlO4RGQ-1" value="Multi-Vendor E-Commerce Platform [Micro Services | Spring boot 3 | Spring Cloud]" style="text;html=1;strokeColor=none;fillColor=none;align=center;verticalAlign=middle;whiteSpace=wrap;rounded=0;fontSize=50;fontStyle=1" vertex="1" parent="1">
          <mxGeometry x="200" y="-50" width="1435" height="98" as="geometry" />
        </mxCell>
        <mxCell id="xCOBlcEBNlZvq0qhSWPW-1" value="Customer" style="rounded=1;whiteSpace=wrap;html=1;" vertex="1" parent="1">
          <mxGeometry x="410" y="188.5" width="120" height="39" as="geometry" />
        </mxCell>
        <mxCell id="xCOBlcEBNlZvq0qhSWPW-12" value="Product" style="rounded=1;whiteSpace=wrap;html=1;" vertex="1" parent="1">
          <mxGeometry x="985.06" y="922" width="120" height="41" as="geometry" />
        </mxCell>
        <mxCell id="xCOBlcEBNlZvq0qhSWPW-13" value="" style="shape=image;verticalLabelPosition=bottom;labelBackgroundColor=default;verticalAlign=top;aspect=fixed;imageAspect=0;image=https://images.ctfassets.net/gt6dp23g0g38/5DqlQtFKecFlkqQ8YGDT2p/aa945b648f44dd872e9a1b89f7d203ef/springboot.png;" vertex="1" parent="1">
          <mxGeometry x="410" y="188.50333333333336" width="20.541" height="18.45" as="geometry" />
        </mxCell>
        <mxCell id="xCOBlcEBNlZvq0qhSWPW-9" value="Payment" style="rounded=1;whiteSpace=wrap;html=1;" vertex="1" parent="1">
          <mxGeometry x="758" y="324" width="120" height="40" as="geometry" />
        </mxCell>
        <mxCell id="xCOBlcEBNlZvq0qhSWPW-10" value="" style="shape=image;verticalLabelPosition=bottom;labelBackgroundColor=default;verticalAlign=top;aspect=fixed;imageAspect=0;image=https://images.ctfassets.net/gt6dp23g0g38/5DqlQtFKecFlkqQ8YGDT2p/aa945b648f44dd872e9a1b89f7d203ef/springboot.png;" vertex="1" parent="1">
          <mxGeometry x="762" y="326.6666666666667" width="20.04" height="18.000000000000004" as="geometry" />
        </mxCell>
        <mxCell id="xCOBlcEBNlZvq0qhSWPW-19" value="Order" style="rounded=1;whiteSpace=wrap;html=1;" vertex="1" parent="1">
          <mxGeometry x="700" y="614.81" width="120" height="41.5" as="geometry" />
        </mxCell>
        <mxCell id="xCOBlcEBNlZvq0qhSWPW-20" value="" style="shape=image;verticalLabelPosition=bottom;labelBackgroundColor=default;verticalAlign=top;aspect=fixed;imageAspect=0;image=https://images.ctfassets.net/gt6dp23g0g38/5DqlQtFKecFlkqQ8YGDT2p/aa945b648f44dd872e9a1b89f7d203ef/springboot.png;" vertex="1" parent="1">
          <mxGeometry x="700" y="614.8066666666666" width="20.7915" height="18.675" as="geometry" />
        </mxCell>
        <mxCell id="xCOBlcEBNlZvq0qhSWPW-33" value="Notification" style="rounded=1;whiteSpace=wrap;html=1;" vertex="1" parent="1">
          <mxGeometry x="1254" y="320.5" width="120" height="47" as="geometry" />
        </mxCell>
        <mxCell id="xCOBlcEBNlZvq0qhSWPW-34" value="" style="shape=image;verticalLabelPosition=bottom;labelBackgroundColor=default;verticalAlign=top;aspect=fixed;imageAspect=0;image=https://images.ctfassets.net/gt6dp23g0g38/5DqlQtFKecFlkqQ8YGDT2p/aa945b648f44dd872e9a1b89f7d203ef/springboot.png;" vertex="1" parent="1">
          <mxGeometry x="1258" y="323.6333333333333" width="23.546999999999997" height="21.15" as="geometry" />
        </mxCell>
        <mxCell id="xCOBlcEBNlZvq0qhSWPW-40" value="Eureka server" style="rounded=1;whiteSpace=wrap;html=1;" vertex="1" parent="1">
          <mxGeometry x="508" y="1110" width="120" height="47" as="geometry" />
        </mxCell>
        <mxCell id="xCOBlcEBNlZvq0qhSWPW-41" value="" style="shape=image;verticalLabelPosition=bottom;labelBackgroundColor=default;verticalAlign=top;aspect=fixed;imageAspect=0;image=https://images.ctfassets.net/gt6dp23g0g38/5DqlQtFKecFlkqQ8YGDT2p/aa945b648f44dd872e9a1b89f7d203ef/springboot.png;" vertex="1" parent="1">
          <mxGeometry x="506.45" y="1110.0033333333333" width="23.546999999999997" height="21.15" as="geometry" />
        </mxCell>
        <mxCell id="xCOBlcEBNlZvq0qhSWPW-37" value="Config server" style="rounded=1;whiteSpace=wrap;html=1;" vertex="1" parent="1">
          <mxGeometry x="1074" y="1110" width="120" height="47" as="geometry" />
        </mxCell>
        <mxCell id="xCOBlcEBNlZvq0qhSWPW-38" value="" style="shape=image;verticalLabelPosition=bottom;labelBackgroundColor=default;verticalAlign=top;aspect=fixed;imageAspect=0;image=https://images.ctfassets.net/gt6dp23g0g38/5DqlQtFKecFlkqQ8YGDT2p/aa945b648f44dd872e9a1b89f7d203ef/springboot.png;" vertex="1" parent="1">
          <mxGeometry x="1074" y="1110.0033333333333" width="23.546999999999997" height="21.15" as="geometry" />
        </mxCell>
        <mxCell id="7" value="Shipment" style="rounded=1;whiteSpace=wrap;html=1;" vertex="1" parent="1">
          <mxGeometry x="1050.5" y="616.31" width="120" height="40" as="geometry" />
        </mxCell>
        <mxCell id="10" style="rounded=0;orthogonalLoop=1;jettySize=auto;html=1;exitX=0.5;exitY=1;exitDx=0;exitDy=0;strokeWidth=3;fillColor=#1ba1e2;strokeColor=#006EAF;flowAnimation=1;entryX=0.5;entryY=0;entryDx=0;entryDy=0;" edge="1" parent="1" source="xCOBlcEBNlZvq0qhSWPW-19" target="xCOBlcEBNlZvq0qhSWPW-12">
          <mxGeometry relative="1" as="geometry">
            <mxPoint x="587" y="386" as="targetPoint" />
            <mxPoint x="750" y="620" as="sourcePoint" />
          </mxGeometry>
        </mxCell>
        <mxCell id="xCOBlcEBNlZvq0qhSWPW-2" value="" style="shape=image;verticalLabelPosition=bottom;labelBackgroundColor=default;verticalAlign=top;aspect=fixed;imageAspect=0;image=https://images.ctfassets.net/gt6dp23g0g38/5DqlQtFKecFlkqQ8YGDT2p/aa945b648f44dd872e9a1b89f7d203ef/springboot.png;" vertex="1" parent="1">
          <mxGeometry x="985.06" y="922" width="19.538999999999998" height="17.55" as="geometry" />
        </mxCell>
        <mxCell id="11" value="" style="rounded=0;orthogonalLoop=1;jettySize=auto;html=1;shape=link;flowAnimation=1;width=-1.7647058823529402;" edge="1" parent="1" source="xCOBlcEBNlZvq0qhSWPW-1" target="2">
          <mxGeometry relative="1" as="geometry">
            <mxPoint x="735.9973521181128" y="159.24" as="targetPoint" />
            <mxPoint x="530" y="208" as="sourcePoint" />
          </mxGeometry>
        </mxCell>
        <mxCell id="2" value="" style="sketch=0;outlineConnect=0;fontColor=#232F3E;gradientColor=none;fillColor=#C925D1;strokeColor=none;dashed=0;verticalLabelPosition=bottom;verticalAlign=top;align=center;html=1;fontSize=12;fontStyle=0;aspect=fixed;pointerEvents=1;shape=mxgraph.aws4.rds_mysql_instance;" vertex="1" parent="1">
          <mxGeometry x="625.57" y="183" width="50" height="50" as="geometry" />
        </mxCell>
        <mxCell id="12" value="" style="sketch=0;aspect=fixed;html=1;points=[];align=center;image;fontSize=12;image=img/lib/mscae/Docker.svg;fillColor=none;container=0;" vertex="1" parent="1">
          <mxGeometry x="607" y="218.99969348659008" width="25.571745633503813" height="20.968831419473126" as="geometry" />
        </mxCell>
        <mxCell id="13" value="Product Movements" style="rounded=1;whiteSpace=wrap;html=1;" vertex="1" parent="1">
          <mxGeometry x="337.33" y="917" width="120" height="51" as="geometry" />
        </mxCell>
        <mxCell id="14" value="" style="shape=image;verticalLabelPosition=bottom;labelBackgroundColor=default;verticalAlign=top;aspect=fixed;imageAspect=0;image=https://images.ctfassets.net/gt6dp23g0g38/5DqlQtFKecFlkqQ8YGDT2p/aa945b648f44dd872e9a1b89f7d203ef/springboot.png;" vertex="1" parent="1">
          <mxGeometry x="337.33" y="917" width="19.538999999999998" height="17.55" as="geometry" />
        </mxCell>
        <mxCell id="15" value="" style="sketch=0;aspect=fixed;html=1;points=[];align=center;image;fontSize=12;image=img/lib/mscae/Docker.svg;fillColor=none;container=0;" vertex="1" parent="1">
          <mxGeometry x="1262.4299999999998" y="484.4996934865901" width="25.571745633503813" height="20.968831419473126" as="geometry" />
        </mxCell>
        <mxCell id="16" value="" style="group" connectable="0" vertex="1" parent="1">
          <mxGeometry x="363" y="820" width="50.120000000000005" height="57.64852490606316" as="geometry" />
        </mxCell>
        <mxCell id="17" value="" style="shape=image;verticalLabelPosition=bottom;labelBackgroundColor=default;verticalAlign=top;aspect=fixed;imageAspect=0;image=https://upload.wikimedia.org/wikipedia/commons/thumb/b/ba/Database-postgres.svg/1448px-Database-postgres.svg.png;container=0;" vertex="1" parent="16">
          <mxGeometry x="15.99735211811253" width="36.12264788188748" height="51.04120428447361" as="geometry" />
        </mxCell>
        <mxCell id="18" value="" style="sketch=0;aspect=fixed;html=1;points=[];align=center;image;fontSize=12;image=img/lib/mscae/Docker.svg;fillColor=none;container=0;" vertex="1" parent="16">
          <mxGeometry y="36.67969348659003" width="25.571745633503813" height="20.968831419473126" as="geometry" />
        </mxCell>
        <mxCell id="20" style="rounded=0;orthogonalLoop=1;jettySize=auto;html=1;entryX=0.5;entryY=0;entryDx=0;entryDy=0;shape=link;flowAnimation=1;exitX=0.5;exitY=1;exitDx=0;exitDy=0;" edge="1" parent="1" source="17" target="13">
          <mxGeometry relative="1" as="geometry">
            <mxPoint x="370" y="867" as="sourcePoint" />
            <mxPoint x="370" y="840" as="targetPoint" />
          </mxGeometry>
        </mxCell>
        <mxCell id="23" value="Vendor" style="rounded=1;whiteSpace=wrap;html=1;" vertex="1" parent="1">
          <mxGeometry x="518.5" y="744.5" width="120" height="41" as="geometry" />
        </mxCell>
        <mxCell id="24" value="" style="shape=image;verticalLabelPosition=bottom;labelBackgroundColor=default;verticalAlign=top;aspect=fixed;imageAspect=0;image=https://images.ctfassets.net/gt6dp23g0g38/5DqlQtFKecFlkqQ8YGDT2p/aa945b648f44dd872e9a1b89f7d203ef/springboot.png;" vertex="1" parent="1">
          <mxGeometry x="518.5" y="744.5" width="19.538999999999998" height="17.55" as="geometry" />
        </mxCell>
        <mxCell id="25" value="" style="sketch=0;outlineConnect=0;fontColor=#232F3E;gradientColor=none;fillColor=#C925D1;strokeColor=none;dashed=0;verticalLabelPosition=bottom;verticalAlign=top;align=center;html=1;fontSize=12;fontStyle=0;aspect=fixed;pointerEvents=1;shape=mxgraph.aws4.rds_mysql_instance;" vertex="1" parent="1">
          <mxGeometry x="400.00000000000006" y="739.9999999999999" width="50" height="50" as="geometry" />
        </mxCell>
        <mxCell id="26" style="rounded=0;orthogonalLoop=1;jettySize=auto;html=1;entryX=0;entryY=0.5;entryDx=0;entryDy=0;shape=link;flowAnimation=1;" edge="1" parent="1" source="25" target="23">
          <mxGeometry relative="1" as="geometry">
            <mxPoint x="365" y="794.5" as="sourcePoint" />
            <mxPoint x="365" y="735.5" as="targetPoint" />
            <Array as="points">
              <mxPoint x="480" y="765" />
            </Array>
          </mxGeometry>
        </mxCell>
        <mxCell id="30" value="" style="sketch=0;aspect=fixed;html=1;points=[];align=center;image;fontSize=12;image=img/lib/mscae/Docker.svg;fillColor=none;container=0;" vertex="1" parent="1">
          <mxGeometry x="384.53999999999996" y="778.2996934865901" width="25.571745633503813" height="20.968831419473126" as="geometry" />
        </mxCell>
        <mxCell id="32" style="rounded=0;orthogonalLoop=1;jettySize=auto;html=1;exitX=0;exitY=0.5;exitDx=0;exitDy=0;strokeWidth=3;fillColor=#1ba1e2;strokeColor=#006EAF;flowAnimation=1;entryX=0.5;entryY=1;entryDx=0;entryDy=0;startArrow=classic;startFill=1;" edge="1" parent="1" source="xCOBlcEBNlZvq0qhSWPW-12" target="23">
          <mxGeometry relative="1" as="geometry">
            <mxPoint x="317" y="239.97" as="targetPoint" />
            <mxPoint x="607" y="626.97" as="sourcePoint" />
          </mxGeometry>
        </mxCell>
        <mxCell id="33" style="rounded=0;orthogonalLoop=1;jettySize=auto;html=1;strokeWidth=3;fillColor=#fa6800;strokeColor=#C73500;flowAnimation=1;entryX=0.5;entryY=0;entryDx=0;entryDy=0;" edge="1" parent="1" source="O6HLDK9tNG4gK17g9pfa-103" target="23">
          <mxGeometry relative="1" as="geometry">
            <mxPoint x="740" y="775" as="targetPoint" />
            <mxPoint x="103" y="383" as="sourcePoint" />
          </mxGeometry>
        </mxCell>
        <mxCell id="34" value="/vendors" style="edgeLabel;html=1;align=center;verticalAlign=middle;resizable=0;points=[];fontSize=15;" connectable="0" vertex="1" parent="33">
          <mxGeometry x="0.2865" y="1" relative="1" as="geometry">
            <mxPoint x="28" y="33" as="offset" />
          </mxGeometry>
        </mxCell>
        <mxCell id="35" style="rounded=0;orthogonalLoop=1;jettySize=auto;html=1;strokeWidth=3;fillColor=#fa6800;strokeColor=#C73500;flowAnimation=1;entryX=0;entryY=0.5;entryDx=0;entryDy=0;" edge="1" parent="1" source="O6HLDK9tNG4gK17g9pfa-103" target="13">
          <mxGeometry relative="1" as="geometry">
            <mxPoint x="435" y="678" as="targetPoint" />
            <mxPoint x="103" y="392" as="sourcePoint" />
            <Array as="points">
              <mxPoint x="300" y="870" />
            </Array>
          </mxGeometry>
        </mxCell>
        <mxCell id="36" value="/product-movements" style="edgeLabel;html=1;align=center;verticalAlign=middle;resizable=0;points=[];fontSize=15;" connectable="0" vertex="1" parent="35">
          <mxGeometry x="0.2865" y="1" relative="1" as="geometry">
            <mxPoint x="7" y="13" as="offset" />
          </mxGeometry>
        </mxCell>
        <mxCell id="37" value="" style="shape=image;verticalLabelPosition=bottom;labelBackgroundColor=default;verticalAlign=top;aspect=fixed;imageAspect=0;image=https://images.ctfassets.net/gt6dp23g0g38/5DqlQtFKecFlkqQ8YGDT2p/aa945b648f44dd872e9a1b89f7d203ef/springboot.png;" vertex="1" parent="1">
          <mxGeometry x="1050.5" y="616.3066666666666" width="20.7915" height="18.675" as="geometry" />
        </mxCell>
        <mxCell id="38" style="rounded=0;orthogonalLoop=1;jettySize=auto;html=1;exitX=0;exitY=0.5;exitDx=0;exitDy=0;strokeWidth=3;fillColor=#1ba1e2;strokeColor=#006EAF;flowAnimation=1;entryX=1;entryY=0.5;entryDx=0;entryDy=0;startArrow=classic;startFill=1;" edge="1" parent="1" source="7" target="xCOBlcEBNlZvq0qhSWPW-19">
          <mxGeometry relative="1" as="geometry">
            <mxPoint x="570" y="241.71" as="targetPoint" />
            <mxPoint x="860" y="628.71" as="sourcePoint" />
          </mxGeometry>
        </mxCell>
        <mxCell id="xCOBlcEBNlZvq0qhSWPW-65" value="Async&lt;br&gt;Send Order confirmation" style="text;html=1;align=center;verticalAlign=middle;resizable=0;points=[];autosize=1;strokeColor=none;fillColor=none;" vertex="1" parent="1">
          <mxGeometry x="836.0600000000001" y="460.5" width="149" height="41" as="geometry" />
        </mxCell>
        <mxCell id="39" style="rounded=0;orthogonalLoop=1;jettySize=auto;html=1;entryX=1;entryY=0.5;entryDx=0;entryDy=0;entryPerimeter=0;fillColor=#60a917;strokeColor=#2D7600;strokeWidth=3;flowAnimation=1;exitX=0.5;exitY=0;exitDx=0;exitDy=0;" edge="1" parent="1" source="7" target="xCOBlcEBNlZvq0qhSWPW-15">
          <mxGeometry relative="1" as="geometry">
            <mxPoint x="830" y="625" as="sourcePoint" />
            <mxPoint x="1051" y="365" as="targetPoint" />
          </mxGeometry>
        </mxCell>
        <mxCell id="40" value="Async&lt;br&gt;Send shipment confirmation&lt;br&gt;and delivery updates" style="text;html=1;align=center;verticalAlign=middle;resizable=0;points=[];autosize=1;strokeColor=none;fillColor=none;" vertex="1" parent="1">
          <mxGeometry x="1000" y="518.5" width="170" height="60" as="geometry" />
        </mxCell>
        <mxCell id="44" value="" style="group" connectable="0" vertex="1" parent="1">
          <mxGeometry x="1240" y="611" width="50.120000000000005" height="57.64852490606316" as="geometry" />
        </mxCell>
        <mxCell id="45" value="" style="shape=image;verticalLabelPosition=bottom;labelBackgroundColor=default;verticalAlign=top;aspect=fixed;imageAspect=0;image=https://upload.wikimedia.org/wikipedia/commons/thumb/b/ba/Database-postgres.svg/1448px-Database-postgres.svg.png;container=0;" vertex="1" parent="44">
          <mxGeometry x="13.99735211811253" width="36.12264788188748" height="51.04120428447361" as="geometry" />
        </mxCell>
        <mxCell id="46" value="" style="sketch=0;aspect=fixed;html=1;points=[];align=center;image;fontSize=12;image=img/lib/mscae/Docker.svg;fillColor=none;container=0;" vertex="1" parent="44">
          <mxGeometry y="36.67969348659003" width="25.571745633503813" height="20.968831419473126" as="geometry" />
        </mxCell>
        <mxCell id="47" style="rounded=0;orthogonalLoop=1;jettySize=auto;html=1;entryX=0;entryY=0.5;entryDx=0;entryDy=0;shape=link;flowAnimation=1;exitX=1;exitY=0.5;exitDx=0;exitDy=0;" edge="1" parent="1" source="7" target="45">
          <mxGeometry relative="1" as="geometry">
            <mxPoint x="1220" y="518.5" as="sourcePoint" />
            <mxPoint x="1220" y="594.5" as="targetPoint" />
          </mxGeometry>
        </mxCell>
        <mxCell id="48" value="Message Broker" style="shape=cylinder3;whiteSpace=wrap;html=1;boundedLbl=1;backgroundOutline=1;size=15;rotation=90;horizontal=0;verticalAlign=top;" vertex="1" parent="1">
          <mxGeometry x="580" y="873" width="59" height="139" as="geometry" />
        </mxCell>
        <mxCell id="49" value="" style="shape=message;html=1;html=1;outlineConnect=0;labelPosition=center;verticalLabelPosition=bottom;align=center;verticalAlign=top;container=0;" vertex="1" parent="1">
          <mxGeometry x="590" y="940" width="23" height="13.5" as="geometry" />
        </mxCell>
        <mxCell id="50" value="" style="shape=message;html=1;html=1;outlineConnect=0;labelPosition=center;verticalLabelPosition=bottom;align=center;verticalAlign=top;container=0;" vertex="1" parent="1">
          <mxGeometry x="567" y="940" width="23" height="13.5" as="geometry" />
        </mxCell>
        <mxCell id="51" value="" style="shape=message;html=1;html=1;outlineConnect=0;labelPosition=center;verticalLabelPosition=bottom;align=center;verticalAlign=top;container=0;" vertex="1" parent="1">
          <mxGeometry x="613" y="940" width="23" height="13.5" as="geometry" />
        </mxCell>
        <mxCell id="52" value="" style="shape=image;verticalLabelPosition=bottom;labelBackgroundColor=default;verticalAlign=top;aspect=fixed;imageAspect=0;image=https://static-00.iconduck.com/assets.00/kafka-icon-2048x935-cvu4503l.png;imageBorder=none;perimeterSpacing=0;" vertex="1" parent="1">
          <mxGeometry x="562.63" y="877" width="77.75" height="35.5" as="geometry" />
        </mxCell>
        <mxCell id="53" style="rounded=0;orthogonalLoop=1;jettySize=auto;html=1;entryX=1;entryY=0.5;entryDx=0;entryDy=0;entryPerimeter=0;fillColor=#60a917;strokeColor=#2D7600;strokeWidth=3;flowAnimation=1;exitX=0.5;exitY=1;exitDx=0;exitDy=0;" edge="1" parent="1" source="xCOBlcEBNlZvq0qhSWPW-12" target="48">
          <mxGeometry relative="1" as="geometry">
            <mxPoint x="930" y="982" as="sourcePoint" />
            <mxPoint x="930" y="740" as="targetPoint" />
            <Array as="points">
              <mxPoint x="1045" y="1030" />
              <mxPoint x="610" y="1030" />
            </Array>
          </mxGeometry>
        </mxCell>
        <mxCell id="54" style="rounded=0;orthogonalLoop=1;jettySize=auto;html=1;entryX=0.5;entryY=1;entryDx=0;entryDy=0;entryPerimeter=0;fillColor=#60a917;strokeColor=#2D7600;strokeWidth=3;flowAnimation=1;exitX=1;exitY=0.5;exitDx=0;exitDy=0;" edge="1" parent="1" source="13" target="48">
          <mxGeometry relative="1" as="geometry">
            <mxPoint x="495.11" y="885" as="sourcePoint" />
            <mxPoint x="410.11" y="960" as="targetPoint" />
          </mxGeometry>
        </mxCell>
        <mxCell id="55" value="Async&lt;br&gt;Send Product &lt;br&gt;movement record" style="text;html=1;align=center;verticalAlign=middle;resizable=0;points=[];autosize=1;strokeColor=none;fillColor=none;" vertex="1" parent="1">
          <mxGeometry x="770" y="968" width="120" height="60" as="geometry" />
        </mxCell>
        <mxCell id="56" value="" style="endArrow=classic;html=1;rounded=0;fontSize=15;endSize=6;strokeWidth=3;strokeColor=#C73500;fillColor=#fa6800;entryX=0;entryY=0.5;entryDx=0;entryDy=0;flowAnimation=1;" edge="1" parent="1" source="O6HLDK9tNG4gK17g9pfa-103" target="xCOBlcEBNlZvq0qhSWPW-9">
          <mxGeometry width="50" height="50" relative="1" as="geometry">
            <mxPoint x="103" y="358.92416472416454" as="sourcePoint" />
            <mxPoint x="710" y="623.0799999999999" as="targetPoint" />
          </mxGeometry>
        </mxCell>
        <mxCell id="57" value="/payments" style="edgeLabel;html=1;align=center;verticalAlign=middle;resizable=0;points=[];fontSize=15;" connectable="0" vertex="1" parent="56">
          <mxGeometry x="0.2804" y="-3" relative="1" as="geometry">
            <mxPoint x="-131" y="-15" as="offset" />
          </mxGeometry>
        </mxCell>
        <mxCell id="58" value="" style="endArrow=classic;html=1;rounded=0;fontSize=15;endSize=6;strokeWidth=3;strokeColor=#C73500;fillColor=#fa6800;entryX=0;entryY=0.25;entryDx=0;entryDy=0;flowAnimation=1;" edge="1" parent="1" source="O6HLDK9tNG4gK17g9pfa-103" target="37">
          <mxGeometry width="50" height="50" relative="1" as="geometry">
            <mxPoint x="103" y="360" as="sourcePoint" />
            <mxPoint x="768" y="354" as="targetPoint" />
          </mxGeometry>
        </mxCell>
        <mxCell id="59" value="/shipments" style="edgeLabel;html=1;align=center;verticalAlign=middle;resizable=0;points=[];fontSize=15;" connectable="0" vertex="1" parent="58">
          <mxGeometry x="0.2804" y="-3" relative="1" as="geometry">
            <mxPoint x="-206" y="-60" as="offset" />
          </mxGeometry>
        </mxCell>
        <mxCell id="60" value="" style="endArrow=classic;html=1;rounded=0;fontSize=15;endSize=6;strokeWidth=3;strokeColor=#C73500;fillColor=#fa6800;entryX=0.427;entryY=0.063;entryDx=0;entryDy=0;flowAnimation=1;exitX=0.985;exitY=0.15;exitDx=0;exitDy=0;exitPerimeter=0;entryPerimeter=0;" edge="1" parent="1" source="O6HLDK9tNG4gK17g9pfa-103" target="xCOBlcEBNlZvq0qhSWPW-33">
          <mxGeometry width="50" height="50" relative="1" as="geometry">
            <mxPoint x="103" y="360" as="sourcePoint" />
            <mxPoint x="768" y="354" as="targetPoint" />
            <Array as="points">
              <mxPoint x="280" y="90" />
              <mxPoint x="1110" y="90" />
            </Array>
          </mxGeometry>
        </mxCell>
        <mxCell id="61" value="/notifications" style="edgeLabel;html=1;align=center;verticalAlign=middle;resizable=0;points=[];fontSize=15;" connectable="0" vertex="1" parent="60">
          <mxGeometry x="0.2804" y="-3" relative="1" as="geometry">
            <mxPoint x="-669" y="77" as="offset" />
          </mxGeometry>
        </mxCell>
        <mxCell id="62" value="" style="dashed=0;outlineConnect=0;html=1;align=center;labelPosition=center;verticalLabelPosition=bottom;verticalAlign=top;shape=mxgraph.weblogos.android;fillColor=#A4CA39;strokeColor=none;fontFamily=Helvetica;fontSize=11;fontColor=default;" vertex="1" parent="1">
          <mxGeometry x="-103.91" y="391.5" width="58" height="69" as="geometry" />
        </mxCell>
        <mxCell id="63" style="rounded=0;orthogonalLoop=1;jettySize=auto;html=1;flowAnimation=1;" edge="1" parent="1" source="62" target="O6HLDK9tNG4gK17g9pfa-103">
          <mxGeometry relative="1" as="geometry">
            <mxPoint x="-40" y="320" as="sourcePoint" />
            <mxPoint x="20" y="370" as="targetPoint" />
          </mxGeometry>
        </mxCell>
        <mxCell id="64" value="" style="image;sketch=0;aspect=fixed;html=1;points=[];align=center;fontSize=12;image=img/lib/mscae/Cache_Redis_Product.svg;fontFamily=Helvetica;fontColor=default;" vertex="1" parent="1">
          <mxGeometry x="1212.43" y="963" width="50" height="42" as="geometry" />
        </mxCell>
        <mxCell id="66" style="rounded=0;orthogonalLoop=1;jettySize=auto;html=1;entryX=-0.043;entryY=0.442;entryDx=0;entryDy=0;shape=link;flowAnimation=1;entryPerimeter=0;exitX=1;exitY=0.75;exitDx=0;exitDy=0;" edge="1" parent="1" source="xCOBlcEBNlZvq0qhSWPW-12" target="64">
          <mxGeometry relative="1" as="geometry">
            <mxPoint x="1110" y="950" as="sourcePoint" />
            <mxPoint x="911" y="736" as="targetPoint" />
          </mxGeometry>
        </mxCell>
        <mxCell id="67" value="cache" style="edgeLabel;html=1;align=center;verticalAlign=middle;resizable=0;points=[];fontSize=15;" connectable="0" vertex="1" parent="1">
          <mxGeometry x="1237.4284332222912" y="1016" as="geometry" />
        </mxCell>
        <mxCell id="65" value="" style="sketch=0;aspect=fixed;html=1;points=[];align=center;image;fontSize=12;image=img/lib/mscae/Docker.svg;fillColor=none;container=0;" vertex="1" parent="1">
          <mxGeometry x="1194" y="991.03" width="25.571745633503813" height="20.968831419473126" as="geometry" />
        </mxCell>
        <mxCell id="EJ8dpQUnaBKJj8ZI7bwt-67" style="rounded=0;orthogonalLoop=1;jettySize=auto;html=1;exitX=0.417;exitY=1.089;exitDx=0;exitDy=0;strokeWidth=3;fillColor=#1ba1e2;strokeColor=#006EAF;flowAnimation=1;entryX=1;entryY=0.5;entryDx=0;entryDy=0;exitPerimeter=0;" edge="1" parent="1" source="xCOBlcEBNlZvq0qhSWPW-19" target="23">
          <mxGeometry relative="1" as="geometry">
            <mxPoint x="1055" y="932" as="targetPoint" />
            <mxPoint x="770" y="666" as="sourcePoint" />
          </mxGeometry>
        </mxCell>
        <mxCell id="qeiD_O24rwlMDeCDRwzT-67" style="rounded=0;orthogonalLoop=1;jettySize=auto;html=1;entryX=1;entryY=0;entryDx=0;entryDy=42.25;entryPerimeter=0;fillColor=#60a917;strokeColor=#2D7600;strokeWidth=3;flowAnimation=1;exitX=0.75;exitY=0;exitDx=0;exitDy=0;" edge="1" parent="1" source="O6HLDK9tNG4gK17g9pfa-22" target="xCOBlcEBNlZvq0qhSWPW-15">
          <mxGeometry relative="1" as="geometry">
            <mxPoint x="1121" y="626" as="sourcePoint" />
            <mxPoint x="1121" y="384" as="targetPoint" />
            <Array as="points">
              <mxPoint x="1360" y="940" />
              <mxPoint x="1360" y="640" />
            </Array>
          </mxGeometry>
        </mxCell>
        <mxCell id="qeiD_O24rwlMDeCDRwzT-68" value="Async&lt;br&gt;Send product threshold&amp;nbsp;&lt;div&gt;warning notification&lt;/div&gt;" style="text;html=1;align=center;verticalAlign=middle;resizable=0;points=[];autosize=1;strokeColor=none;fillColor=none;" vertex="1" parent="1">
          <mxGeometry x="1217" y="744.5" width="150" height="60" as="geometry" />
        </mxCell>
      </root>
    </mxGraphModel>
  </diagram>
</mxfile>
